<?xml version="1.0" encoding="UTF-8"?>
<svg width="27px" height="27px" viewBox="0 0 27 27" version="1.1" xmlns="http://www.w3.org/2000/svg" xmlns:xlink="http://www.w3.org/1999/xlink">
    <title>mute</title>
    <g id="Page-1" stroke="none" stroke-width="1" fill="none" fill-rule="evenodd">
        <g id="mute" fill="#000000" fill-rule="nonzero">
            <path d="M21,0.96141552 C21,0.597772197 20.7900763,0.253267995 20.4656489,0.100155017 C20.1221374,-0.0720970835 19.740458,-0.0146797166 19.4541985,0.214989751 L11,6.97109992 L21,17 L21,0.96141552 L21,0.96141552 Z" id="Path"></path>
            <path d="M26.7179364,25.3530294 L1.64561234,0.282048535 C1.26952748,-0.0940161783 0.658148505,-0.0940161783 0.282063645,0.282048535 C-0.094021215,0.658113248 -0.094021215,1.26945947 0.282063645,1.64552419 L6.34956606,7.7146301 L5.78447445,7.7146301 C5.18659595,7.7146301 4.66586307,7.98462527 4.31870781,8.40890341 C4.02941176,8.7367547 3.85583414,9.18031821 3.85583414,9.64316709 L3.85583414,17.357315 C3.85583414,18.4180104 4.72372228,19.285852 5.78447445,19.285852 L10.25892,19.285852 L19.6513983,26.7878609 C19.8249759,26.9228585 20.0371263,27 20.2492768,27 C20.3842816,27 20.5385728,26.9614293 20.6735776,26.9035732 C21.0014465,26.7492902 21.2135969,26.4021535 21.2135969,26.0357315 L21.2135969,22.5778647 L25.352459,26.7165051 C25.5414658,26.9055017 25.7883317,27 26.0351977,27 C26.2820636,27 26.5289296,26.9055017 26.7179364,26.7184336 C27.0940212,26.3404403 27.0940212,25.7310227 26.7179364,25.3530294 Z" id="Path"></path>
        </g>
    </g>
</svg>